<mxfile host="app.diagrams.net" agent="Mozilla/5.0 (Windows NT 10.0; Win64; x64) AppleWebKit/537.36 (KHTML, like Gecko) Chrome/131.0.0.0 Safari/537.36 Edg/131.0.0.0" version="24.8.3">
  <diagram id="C5RBs43oDa-KdzZeNtuy" name="Page-1">
    <mxGraphModel dx="1507" dy="829" grid="1" gridSize="10" guides="1" tooltips="1" connect="1" arrows="1" fold="1" page="1" pageScale="1" pageWidth="827" pageHeight="1169" math="0" shadow="0">
      <root>
        <mxCell id="WIyWlLk6GJQsqaUBKTNV-0" />
        <mxCell id="WIyWlLk6GJQsqaUBKTNV-1" parent="WIyWlLk6GJQsqaUBKTNV-0" />
        <mxCell id="UyAJVc5Fr-xXgmyUHDp8-0" value="BEGIN Gameplay" style="ellipse;whiteSpace=wrap;html=1;" vertex="1" parent="WIyWlLk6GJQsqaUBKTNV-1">
          <mxGeometry x="-190" y="60" width="120" height="80" as="geometry" />
        </mxCell>
        <mxCell id="UyAJVc5Fr-xXgmyUHDp8-1" value="" style="endArrow=classic;html=1;rounded=0;exitX=0.5;exitY=1;exitDx=0;exitDy=0;" edge="1" parent="WIyWlLk6GJQsqaUBKTNV-1" source="UyAJVc5Fr-xXgmyUHDp8-0">
          <mxGeometry width="50" height="50" relative="1" as="geometry">
            <mxPoint x="-80" y="450" as="sourcePoint" />
            <mxPoint x="-130" y="210" as="targetPoint" />
          </mxGeometry>
        </mxCell>
        <mxCell id="UyAJVc5Fr-xXgmyUHDp8-3" value="" style="edgeStyle=orthogonalEdgeStyle;rounded=0;orthogonalLoop=1;jettySize=auto;html=1;" edge="1" parent="WIyWlLk6GJQsqaUBKTNV-1" source="UyAJVc5Fr-xXgmyUHDp8-2" target="UyAJVc5Fr-xXgmyUHDp8-0">
          <mxGeometry relative="1" as="geometry" />
        </mxCell>
        <mxCell id="UyAJVc5Fr-xXgmyUHDp8-2" value="userInput" style="shape=parallelogram;perimeter=parallelogramPerimeter;whiteSpace=wrap;html=1;fixedSize=1;" vertex="1" parent="WIyWlLk6GJQsqaUBKTNV-1">
          <mxGeometry x="-190" y="210" width="120" height="60" as="geometry" />
        </mxCell>
        <mxCell id="UyAJVc5Fr-xXgmyUHDp8-4" value="" style="endArrow=classic;html=1;rounded=0;exitX=0.5;exitY=1;exitDx=0;exitDy=0;entryX=0.5;entryY=0;entryDx=0;entryDy=0;" edge="1" parent="WIyWlLk6GJQsqaUBKTNV-1" source="UyAJVc5Fr-xXgmyUHDp8-2" target="UyAJVc5Fr-xXgmyUHDp8-5">
          <mxGeometry width="50" height="50" relative="1" as="geometry">
            <mxPoint x="-160" y="390" as="sourcePoint" />
            <mxPoint x="-130" y="350" as="targetPoint" />
          </mxGeometry>
        </mxCell>
        <mxCell id="UyAJVc5Fr-xXgmyUHDp8-7" style="edgeStyle=orthogonalEdgeStyle;rounded=0;orthogonalLoop=1;jettySize=auto;html=1;exitX=1;exitY=0.5;exitDx=0;exitDy=0;entryX=0.5;entryY=0;entryDx=0;entryDy=0;" edge="1" parent="WIyWlLk6GJQsqaUBKTNV-1" source="UyAJVc5Fr-xXgmyUHDp8-5" target="UyAJVc5Fr-xXgmyUHDp8-9">
          <mxGeometry relative="1" as="geometry">
            <mxPoint x="-30" y="410" as="targetPoint" />
            <mxPoint x="-140" y="390" as="sourcePoint" />
            <Array as="points">
              <mxPoint x="40" y="390" />
            </Array>
          </mxGeometry>
        </mxCell>
        <mxCell id="UyAJVc5Fr-xXgmyUHDp8-8" value="True" style="edgeLabel;html=1;align=center;verticalAlign=middle;resizable=0;points=[];" vertex="1" connectable="0" parent="UyAJVc5Fr-xXgmyUHDp8-7">
          <mxGeometry x="0.0154" y="-2" relative="1" as="geometry">
            <mxPoint as="offset" />
          </mxGeometry>
        </mxCell>
        <mxCell id="UyAJVc5Fr-xXgmyUHDp8-10" style="edgeStyle=orthogonalEdgeStyle;rounded=0;orthogonalLoop=1;jettySize=auto;html=1;exitX=0;exitY=0.5;exitDx=0;exitDy=0;entryX=0.5;entryY=0;entryDx=0;entryDy=0;" edge="1" parent="WIyWlLk6GJQsqaUBKTNV-1" source="UyAJVc5Fr-xXgmyUHDp8-5" target="UyAJVc5Fr-xXgmyUHDp8-13">
          <mxGeometry relative="1" as="geometry">
            <mxPoint x="-250" y="440" as="targetPoint" />
          </mxGeometry>
        </mxCell>
        <mxCell id="UyAJVc5Fr-xXgmyUHDp8-12" value="False" style="edgeLabel;html=1;align=center;verticalAlign=middle;resizable=0;points=[];" vertex="1" connectable="0" parent="UyAJVc5Fr-xXgmyUHDp8-10">
          <mxGeometry x="-0.2667" relative="1" as="geometry">
            <mxPoint as="offset" />
          </mxGeometry>
        </mxCell>
        <mxCell id="UyAJVc5Fr-xXgmyUHDp8-5" value="LMB pressed?" style="rhombus;whiteSpace=wrap;html=1;" vertex="1" parent="WIyWlLk6GJQsqaUBKTNV-1">
          <mxGeometry x="-180" y="350" width="100" height="80" as="geometry" />
        </mxCell>
        <mxCell id="UyAJVc5Fr-xXgmyUHDp8-9" value="Attack" style="rounded=0;whiteSpace=wrap;html=1;" vertex="1" parent="WIyWlLk6GJQsqaUBKTNV-1">
          <mxGeometry x="-10" y="410" width="100" height="30" as="geometry" />
        </mxCell>
        <mxCell id="UyAJVc5Fr-xXgmyUHDp8-14" style="edgeStyle=orthogonalEdgeStyle;rounded=0;orthogonalLoop=1;jettySize=auto;html=1;exitX=1;exitY=0.5;exitDx=0;exitDy=0;entryX=0.5;entryY=0;entryDx=0;entryDy=0;" edge="1" parent="WIyWlLk6GJQsqaUBKTNV-1" source="UyAJVc5Fr-xXgmyUHDp8-13" target="UyAJVc5Fr-xXgmyUHDp8-16">
          <mxGeometry relative="1" as="geometry">
            <mxPoint x="-80" y="510" as="targetPoint" />
          </mxGeometry>
        </mxCell>
        <mxCell id="UyAJVc5Fr-xXgmyUHDp8-15" value="True" style="edgeLabel;html=1;align=center;verticalAlign=middle;resizable=0;points=[];" vertex="1" connectable="0" parent="UyAJVc5Fr-xXgmyUHDp8-14">
          <mxGeometry x="-0.2756" y="4" relative="1" as="geometry">
            <mxPoint as="offset" />
          </mxGeometry>
        </mxCell>
        <mxCell id="UyAJVc5Fr-xXgmyUHDp8-18" style="edgeStyle=orthogonalEdgeStyle;rounded=0;orthogonalLoop=1;jettySize=auto;html=1;exitX=0;exitY=0.5;exitDx=0;exitDy=0;entryX=0.5;entryY=0;entryDx=0;entryDy=0;" edge="1" parent="WIyWlLk6GJQsqaUBKTNV-1" source="UyAJVc5Fr-xXgmyUHDp8-13" target="UyAJVc5Fr-xXgmyUHDp8-20">
          <mxGeometry relative="1" as="geometry">
            <mxPoint x="-410" y="460" as="targetPoint" />
          </mxGeometry>
        </mxCell>
        <mxCell id="UyAJVc5Fr-xXgmyUHDp8-19" value="False" style="edgeLabel;html=1;align=center;verticalAlign=middle;resizable=0;points=[];" vertex="1" connectable="0" parent="UyAJVc5Fr-xXgmyUHDp8-18">
          <mxGeometry x="-0.1602" relative="1" as="geometry">
            <mxPoint as="offset" />
          </mxGeometry>
        </mxCell>
        <mxCell id="UyAJVc5Fr-xXgmyUHDp8-13" value="RMB pressed?" style="rhombus;whiteSpace=wrap;html=1;" vertex="1" parent="WIyWlLk6GJQsqaUBKTNV-1">
          <mxGeometry x="-320" y="420" width="100" height="80" as="geometry" />
        </mxCell>
        <mxCell id="UyAJVc5Fr-xXgmyUHDp8-16" value="Block" style="rounded=0;whiteSpace=wrap;html=1;" vertex="1" parent="WIyWlLk6GJQsqaUBKTNV-1">
          <mxGeometry x="-150" y="490" width="100" height="30" as="geometry" />
        </mxCell>
        <mxCell id="UyAJVc5Fr-xXgmyUHDp8-20" value="RMB pressed?" style="rhombus;whiteSpace=wrap;html=1;" vertex="1" parent="WIyWlLk6GJQsqaUBKTNV-1">
          <mxGeometry x="-463" y="480" width="100" height="80" as="geometry" />
        </mxCell>
      </root>
    </mxGraphModel>
  </diagram>
</mxfile>
